<svg xmlns="http://www.w3.org/2000/svg" width="512" height="512" viewBox="0 0 512 512">
  <rect width="512" height="512" rx="112" fill="url(#bg)"/>
  <path d="M112 208c48 0 48-48 96-48s48 48 96 48 48-48 96-48 48 48 96 48" fill="none" stroke="#fff" stroke-linecap="round" stroke-linejoin="round" stroke-width="36"/>
  <path d="M112 304c48 0 48-48 96-48s48 48 96 48 48-48 96-48 48 48 96 48" fill="none" stroke="#fff" stroke-linecap="round" stroke-linejoin="round" stroke-width="36" opacity="0.8"/>
  <path d="M112 400c48 0 48-48 96-48s48 48 96 48 48-48 96-48 48 48 96 48" fill="none" stroke="#fff" stroke-linecap="round" stroke-linejoin="round" stroke-width="36" opacity="0.6"/>
  <defs>
    <linearGradient id="bg" x1="0" y1="0" x2="512" y2="512" gradientUnits="userSpaceOnUse">
      <stop stop-color="#0c4a6e"/>
      <stop offset="0.5" stop-color="#0891B2"/>
      <stop offset="1" stop-color="#22d3ee"/>
    </linearGradient>
  </defs>
</svg>
